solid exported
	facet normal -0.9927088857677918 0.1205365841463476 0
		outer loop
			vertex -0.25 0 7.25
			vertex -0.25 0 21.75
			vertex -0.24273546040058136 0.05982891470193863 21.75
		endloop
	endfacet
	facet normal -0.9350162110516939 0.35460497045379175 0
		outer loop
			vertex -0.24273546040058136 0.05982891470193863 7.25
			vertex -0.24273546040058136 0.05982891470193863 21.75
			vertex -0.22136400640010834 0.11618079245090485 21.75
		endloop
	endfacet
	facet normal -0.9927088857677918 0.1205365841463476 0
		outer loop
			vertex -0.24273546040058136 0.05982891470193863 7.25
			vertex -0.25 0 7.25
			vertex -0.24273546040058136 0.05982891470193863 21.75
		endloop
	endfacet
	facet normal -0.8229839210161078 0.56806466687249 0
		outer loop
			vertex -0.22136400640010834 0.11618079245090485 7.25
			vertex -0.22136400640010834 0.11618079245090485 21.75
			vertex -0.18712769448757172 0.1657806634902954 21.75
		endloop
	endfacet
	facet normal -0.9350162110516939 0.35460497045379175 0
		outer loop
			vertex -0.22136400640010834 0.11618079245090485 7.25
			vertex -0.24273546040058136 0.05982891470193863 7.25
			vertex -0.22136400640010834 0.11618079245090485 21.75
		endloop
	endfacet
	facet normal -0.6631226005968793 0.7485107992391505 0
		outer loop
			vertex -0.18712769448757172 0.1657806634902954 7.25
			vertex -0.18712769448757172 0.1657806634902954 21.75
			vertex -0.1420161873102188 0.20574596524238586 21.75
		endloop
	endfacet
	facet normal -0.8229839210161078 0.56806466687249 0
		outer loop
			vertex -0.18712769448757172 0.1657806634902954 7.25
			vertex -0.22136400640010834 0.11618079245090485 7.25
			vertex -0.18712769448757172 0.1657806634902954 21.75
		endloop
	endfacet
	facet normal -0.46472311515658843 0.8854560555099031 0
		outer loop
			vertex -0.1420161873102188 0.20574596524238586 7.25
			vertex -0.1420161873102188 0.20574596524238586 21.75
			vertex -0.08865122497081757 0.23375405371189117 21.75
		endloop
	endfacet
	facet normal -0.6631226005968793 0.7485107992391505 0
		outer loop
			vertex -0.1420161873102188 0.20574596524238586 7.25
			vertex -0.18712769448757172 0.1657806634902954 7.25
			vertex -0.1420161873102188 0.20574596524238586 21.75
		endloop
	endfacet
	facet normal -0.2393157101709929 0.9709418061167998 0
		outer loop
			vertex -0.08865122497081757 0.23375405371189117 7.25
			vertex -0.08865122497081757 0.23375405371189117 21.75
			vertex -0.03013416938483715 0.24817721545696259 21.75
		endloop
	endfacet
	facet normal -0.46472311515658843 0.8854560555099031 0
		outer loop
			vertex -0.08865122497081757 0.23375405371189117 7.25
			vertex -0.1420161873102188 0.20574596524238586 7.25
			vertex -0.08865122497081757 0.23375405371189117 21.75
		endloop
	endfacet
	facet normal 0 1 0
		outer loop
			vertex -0.03013416938483715 0.24817721545696259 7.25
			vertex -0.03013416938483715 0.24817721545696259 21.75
			vertex 0.03013416938483715 0.24817721545696259 21.75
		endloop
	endfacet
	facet normal -0.2393157101709929 0.9709418061167998 0
		outer loop
			vertex -0.03013416938483715 0.24817721545696259 7.25
			vertex -0.08865122497081757 0.23375405371189117 7.25
			vertex -0.03013416938483715 0.24817721545696259 21.75
		endloop
	endfacet
	facet normal 0.2393157101709929 0.9709418061167998 0
		outer loop
			vertex 0.03013416938483715 0.24817721545696259 7.25
			vertex 0.03013416938483715 0.24817721545696259 21.75
			vertex 0.08865122497081757 0.23375405371189117 21.75
		endloop
	endfacet
	facet normal 0 1 0
		outer loop
			vertex 0.03013416938483715 0.24817721545696259 7.25
			vertex -0.03013416938483715 0.24817721545696259 7.25
			vertex 0.03013416938483715 0.24817721545696259 21.75
		endloop
	endfacet
	facet normal 0.46472311515658843 0.8854560555099031 0
		outer loop
			vertex 0.08865122497081757 0.23375405371189117 7.25
			vertex 0.08865122497081757 0.23375405371189117 21.75
			vertex 0.1420161873102188 0.20574596524238586 21.75
		endloop
	endfacet
	facet normal 0.2393157101709929 0.9709418061167998 0
		outer loop
			vertex 0.08865122497081757 0.23375405371189117 7.25
			vertex 0.03013416938483715 0.24817721545696259 7.25
			vertex 0.08865122497081757 0.23375405371189117 21.75
		endloop
	endfacet
	facet normal 0.6631226005968793 0.7485107992391505 0
		outer loop
			vertex 0.1420161873102188 0.20574596524238586 7.25
			vertex 0.1420161873102188 0.20574596524238586 21.75
			vertex 0.18712769448757172 0.1657806634902954 21.75
		endloop
	endfacet
	facet normal 0.46472311515658843 0.8854560555099031 0
		outer loop
			vertex 0.1420161873102188 0.20574596524238586 7.25
			vertex 0.08865122497081757 0.23375405371189117 7.25
			vertex 0.1420161873102188 0.20574596524238586 21.75
		endloop
	endfacet
	facet normal 0.6631226005968793 0.7485107992391505 0
		outer loop
			vertex 0.18712769448757172 0.1657806634902954 7.25
			vertex 0.1420161873102188 0.20574596524238586 7.25
			vertex 0.18712769448757172 0.1657806634902954 21.75
		endloop
	endfacet
	facet normal 0.9350162110516939 0.35460497045379175 0
		outer loop
			vertex 0.22136400640010834 0.11618079245090485 7.25
			vertex 0.22136400640010834 0.11618079245090485 21.75
			vertex 0.24273546040058136 0.05982891470193863 21.75
		endloop
	endfacet
	facet normal 0.8229839210161078 0.56806466687249 0
		outer loop
			vertex 0.22136400640010834 0.11618079245090485 7.25
			vertex 0.18712769448757172 0.1657806634902954 21.75
			vertex 0.22136400640010834 0.11618079245090485 21.75
		endloop
	endfacet
	facet normal 0.8229839210161078 0.56806466687249 0
		outer loop
			vertex 0.22136400640010834 0.11618079245090485 7.25
			vertex 0.18712769448757172 0.1657806634902954 7.25
			vertex 0.18712769448757172 0.1657806634902954 21.75
		endloop
	endfacet
	facet normal 0.9350162110516939 0.35460497045379175 0
		outer loop
			vertex 0.24273546040058136 0.05982891470193863 7.25
			vertex 0.22136400640010834 0.11618079245090485 7.25
			vertex 0.24273546040058136 0.05982891470193863 21.75
		endloop
	endfacet
	facet normal 0.9927088857677917 0.12053658414634764 0
		outer loop
			vertex 0.25 3.0616171314629196e-17 7.25
			vertex 0.24273546040058136 0.05982891470193863 21.75
			vertex 0.25 3.0616171314629196e-17 21.75
		endloop
	endfacet
	facet normal 0.9927088857677917 0.12053658414634764 0
		outer loop
			vertex 0.25 3.0616171314629196e-17 7.25
			vertex 0.24273546040058136 0.05982891470193863 7.25
			vertex 0.24273546040058136 0.05982891470193863 21.75
		endloop
	endfacet
	facet normal -0.9927088857677918 0.1205365841463476 0
		outer loop
			vertex -0.24273546040058136 0.05982891470193863 -21.75
			vertex -0.25 0 -7.25
			vertex -0.24273546040058136 0.05982891470193863 -7.25
		endloop
	endfacet
	facet normal -0.9927088857677918 0.1205365841463476 0
		outer loop
			vertex -0.24273546040058136 0.05982891470193863 -21.75
			vertex -0.25 0 -21.75
			vertex -0.25 0 -7.25
		endloop
	endfacet
	facet normal -0.9350162110516939 0.35460497045379175 0
		outer loop
			vertex -0.22136400640010834 0.11618079245090485 -21.75
			vertex -0.24273546040058136 0.05982891470193863 -7.25
			vertex -0.22136400640010834 0.11618079245090485 -7.25
		endloop
	endfacet
	facet normal -0.9350162110516939 0.35460497045379175 0
		outer loop
			vertex -0.22136400640010834 0.11618079245090485 -21.75
			vertex -0.24273546040058136 0.05982891470193863 -21.75
			vertex -0.24273546040058136 0.05982891470193863 -7.25
		endloop
	endfacet
	facet normal -0.8229839210161078 0.56806466687249 0
		outer loop
			vertex -0.18712769448757172 0.1657806634902954 -21.75
			vertex -0.22136400640010834 0.11618079245090485 -7.25
			vertex -0.18712769448757172 0.1657806634902954 -7.25
		endloop
	endfacet
	facet normal -0.8229839210161078 0.56806466687249 0
		outer loop
			vertex -0.18712769448757172 0.1657806634902954 -21.75
			vertex -0.22136400640010834 0.11618079245090485 -21.75
			vertex -0.22136400640010834 0.11618079245090485 -7.25
		endloop
	endfacet
	facet normal -0.6631226005968793 0.7485107992391505 0
		outer loop
			vertex -0.1420161873102188 0.20574596524238586 -21.75
			vertex -0.18712769448757172 0.1657806634902954 -7.25
			vertex -0.1420161873102188 0.20574596524238586 -7.25
		endloop
	endfacet
	facet normal -0.6631226005968793 0.7485107992391505 0
		outer loop
			vertex -0.1420161873102188 0.20574596524238586 -21.75
			vertex -0.18712769448757172 0.1657806634902954 -21.75
			vertex -0.18712769448757172 0.1657806634902954 -7.25
		endloop
	endfacet
	facet normal -0.46472311515658843 0.8854560555099031 0
		outer loop
			vertex -0.08865122497081757 0.23375405371189117 -21.75
			vertex -0.1420161873102188 0.20574596524238586 -7.25
			vertex -0.08865122497081757 0.23375405371189117 -7.25
		endloop
	endfacet
	facet normal -0.46472311515658843 0.8854560555099031 0
		outer loop
			vertex -0.08865122497081757 0.23375405371189117 -21.75
			vertex -0.1420161873102188 0.20574596524238586 -21.75
			vertex -0.1420161873102188 0.20574596524238586 -7.25
		endloop
	endfacet
	facet normal -0.2393157101709929 0.9709418061167998 0
		outer loop
			vertex -0.03013416938483715 0.24817721545696259 -21.75
			vertex -0.08865122497081757 0.23375405371189117 -7.25
			vertex -0.03013416938483715 0.24817721545696259 -7.25
		endloop
	endfacet
	facet normal -0.2393157101709929 0.9709418061167998 0
		outer loop
			vertex -0.03013416938483715 0.24817721545696259 -21.75
			vertex -0.08865122497081757 0.23375405371189117 -21.75
			vertex -0.08865122497081757 0.23375405371189117 -7.25
		endloop
	endfacet
	facet normal 0 1 0
		outer loop
			vertex 0.03013416938483715 0.24817721545696259 -21.75
			vertex -0.03013416938483715 0.24817721545696259 -7.25
			vertex 0.03013416938483715 0.24817721545696259 -7.25
		endloop
	endfacet
	facet normal 0 1 0
		outer loop
			vertex 0.03013416938483715 0.24817721545696259 -21.75
			vertex -0.03013416938483715 0.24817721545696259 -21.75
			vertex -0.03013416938483715 0.24817721545696259 -7.25
		endloop
	endfacet
	facet normal 0.2393157101709929 0.9709418061167998 0
		outer loop
			vertex 0.08865122497081757 0.23375405371189117 -21.75
			vertex 0.03013416938483715 0.24817721545696259 -7.25
			vertex 0.08865122497081757 0.23375405371189117 -7.25
		endloop
	endfacet
	facet normal 0.2393157101709929 0.9709418061167998 0
		outer loop
			vertex 0.08865122497081757 0.23375405371189117 -21.75
			vertex 0.03013416938483715 0.24817721545696259 -21.75
			vertex 0.03013416938483715 0.24817721545696259 -7.25
		endloop
	endfacet
	facet normal 0.6631226005968793 0.7485107992391505 0
		outer loop
			vertex 0.1420161873102188 0.20574596524238586 -21.75
			vertex 0.1420161873102188 0.20574596524238586 -7.25
			vertex 0.18712769448757172 0.1657806634902954 -7.25
		endloop
	endfacet
	facet normal 0.46472311515658843 0.8854560555099031 0
		outer loop
			vertex 0.1420161873102188 0.20574596524238586 -21.75
			vertex 0.08865122497081757 0.23375405371189117 -7.25
			vertex 0.1420161873102188 0.20574596524238586 -7.25
		endloop
	endfacet
	facet normal 0.46472311515658843 0.8854560555099031 0
		outer loop
			vertex 0.1420161873102188 0.20574596524238586 -21.75
			vertex 0.08865122497081757 0.23375405371189117 -21.75
			vertex 0.08865122497081757 0.23375405371189117 -7.25
		endloop
	endfacet
	facet normal 0.6631226005968793 0.7485107992391505 0
		outer loop
			vertex 0.18712769448757172 0.1657806634902954 -21.75
			vertex 0.1420161873102188 0.20574596524238586 -21.75
			vertex 0.18712769448757172 0.1657806634902954 -7.25
		endloop
	endfacet
	facet normal 0.9350162110516939 0.35460497045379175 0
		outer loop
			vertex 0.22136400640010834 0.11618079245090485 -21.75
			vertex 0.22136400640010834 0.11618079245090485 -7.25
			vertex 0.24273546040058136 0.05982891470193863 -7.25
		endloop
	endfacet
	facet normal 0.8229839210161078 0.56806466687249 0
		outer loop
			vertex 0.22136400640010834 0.11618079245090485 -21.75
			vertex 0.18712769448757172 0.1657806634902954 -7.25
			vertex 0.22136400640010834 0.11618079245090485 -7.25
		endloop
	endfacet
	facet normal 0.8229839210161078 0.56806466687249 0
		outer loop
			vertex 0.22136400640010834 0.11618079245090485 -21.75
			vertex 0.18712769448757172 0.1657806634902954 -21.75
			vertex 0.18712769448757172 0.1657806634902954 -7.25
		endloop
	endfacet
	facet normal 0.9927088857677917 0.12053658414634764 0
		outer loop
			vertex 0.24273546040058136 0.05982891470193863 -21.75
			vertex 0.24273546040058136 0.05982891470193863 -7.25
			vertex 0.25 3.0616171314629196e-17 -7.25
		endloop
	endfacet
	facet normal 0.9350162110516939 0.35460497045379175 0
		outer loop
			vertex 0.24273546040058136 0.05982891470193863 -21.75
			vertex 0.22136400640010834 0.11618079245090485 -21.75
			vertex 0.24273546040058136 0.05982891470193863 -7.25
		endloop
	endfacet
	facet normal 0.9927088857677917 0.12053658414634764 0
		outer loop
			vertex 0.25 3.0616171314629196e-17 -21.75
			vertex 0.24273546040058136 0.05982891470193863 -21.75
			vertex 0.25 3.0616171314629196e-17 -7.25
		endloop
	endfacet
	facet normal 0 0 1
		outer loop
			vertex 0.1420161873102188 -0.20574596524238586 7.25
			vertex 1.600000023841858 -1.600000023841858 7.25
			vertex 0.18712769448757172 -0.1657806634902954 7.25
		endloop
	endfacet
	facet normal 0 0 1
		outer loop
			vertex 0.22136400640010834 -0.11618079245090485 7.25
			vertex 0.18712769448757172 -0.1657806634902954 7.25
			vertex 1.600000023841858 -1.600000023841858 7.25
		endloop
	endfacet
	facet normal 0 0 1
		outer loop
			vertex 0.08865122497081757 -0.23375405371189117 7.25
			vertex 1.600000023841858 -1.600000023841858 7.25
			vertex 0.1420161873102188 -0.20574596524238586 7.25
		endloop
	endfacet
	facet normal 0 0 1
		outer loop
			vertex 0.24273546040058136 -0.05982891470193863 7.25
			vertex 0.22136400640010834 -0.11618079245090485 7.25
			vertex 1.600000023841858 -1.600000023841858 7.25
		endloop
	endfacet
	facet normal 0 0 1
		outer loop
			vertex 0.03013416938483715 -0.24817721545696259 7.25
			vertex 1.600000023841858 -1.600000023841858 7.25
			vertex 0.08865122497081757 -0.23375405371189117 7.25
		endloop
	endfacet
	facet normal 0 0 1
		outer loop
			vertex 0.25 3.0616171314629196e-17 7.25
			vertex 0.24273546040058136 -0.05982891470193863 7.25
			vertex 1.600000023841858 -1.600000023841858 7.25
		endloop
	endfacet
	facet normal 0 0 1
		outer loop
			vertex 1.600000023841858 1.600000023841858 7.25
			vertex 0.24273546040058136 0.05982891470193863 7.25
			vertex 0.25 3.0616171314629196e-17 7.25
		endloop
	endfacet
	facet normal 0 0 1
		outer loop
			vertex 1.600000023841858 1.600000023841858 7.25
			vertex 0.22136400640010834 0.11618079245090485 7.25
			vertex 0.24273546040058136 0.05982891470193863 7.25
		endloop
	endfacet
	facet normal 0 0 1
		outer loop
			vertex 1.600000023841858 1.600000023841858 7.25
			vertex 0.18712769448757172 0.1657806634902954 7.25
			vertex 0.22136400640010834 0.11618079245090485 7.25
		endloop
	endfacet
	facet normal 0 0 1
		outer loop
			vertex 1.600000023841858 1.600000023841858 7.25
			vertex 0.25 3.0616171314629196e-17 7.25
			vertex 1.600000023841858 -1.600000023841858 7.25
		endloop
	endfacet
	facet normal 0 0 1
		outer loop
			vertex -1.600000023841858 -1.600000023841858 7.25
			vertex -0.08865122497081757 -0.23375405371189117 7.25
			vertex -0.1420161873102188 -0.20574596524238586 7.25
		endloop
	endfacet
	facet normal 0 0 1
		outer loop
			vertex -1.600000023841858 -1.600000023841858 7.25
			vertex -0.03013416938483715 -0.24817721545696259 7.25
			vertex -0.08865122497081757 -0.23375405371189117 7.25
		endloop
	endfacet
	facet normal 0 0 1
		outer loop
			vertex -1.600000023841858 -1.600000023841858 7.25
			vertex 0.03013416938483715 -0.24817721545696259 7.25
			vertex -0.03013416938483715 -0.24817721545696259 7.25
		endloop
	endfacet
	facet normal 0 0 1
		outer loop
			vertex -1.600000023841858 -1.600000023841858 7.25
			vertex 1.600000023841858 -1.600000023841858 7.25
			vertex 0.03013416938483715 -0.24817721545696259 7.25
		endloop
	endfacet
	facet normal 0 0 1
		outer loop
			vertex -0.18712769448757172 -0.1657806634902954 7.25
			vertex -1.600000023841858 -1.600000023841858 7.25
			vertex -0.1420161873102188 -0.20574596524238586 7.25
		endloop
	endfacet
	facet normal 0 0 1
		outer loop
			vertex 0.1420161873102188 0.20574596524238586 7.25
			vertex 0.18712769448757172 0.1657806634902954 7.25
			vertex 1.600000023841858 1.600000023841858 7.25
		endloop
	endfacet
	facet normal 0 0 1
		outer loop
			vertex -0.22136400640010834 -0.11618079245090485 7.25
			vertex -1.600000023841858 -1.600000023841858 7.25
			vertex -0.18712769448757172 -0.1657806634902954 7.25
		endloop
	endfacet
	facet normal 0 0 1
		outer loop
			vertex 0.08865122497081757 0.23375405371189117 7.25
			vertex 0.1420161873102188 0.20574596524238586 7.25
			vertex 1.600000023841858 1.600000023841858 7.25
		endloop
	endfacet
	facet normal 0 0 1
		outer loop
			vertex -0.24273546040058136 -0.05982891470193863 7.25
			vertex -1.600000023841858 -1.600000023841858 7.25
			vertex -0.22136400640010834 -0.11618079245090485 7.25
		endloop
	endfacet
	facet normal 0 0 1
		outer loop
			vertex 0.03013416938483715 0.24817721545696259 7.25
			vertex 0.08865122497081757 0.23375405371189117 7.25
			vertex 1.600000023841858 1.600000023841858 7.25
		endloop
	endfacet
	facet normal 0 0 1
		outer loop
			vertex -0.25 0 7.25
			vertex -1.600000023841858 -1.600000023841858 7.25
			vertex -0.24273546040058136 -0.05982891470193863 7.25
		endloop
	endfacet
	facet normal 0 0 1
		outer loop
			vertex -0.03013416938483715 0.24817721545696259 7.25
			vertex 0.03013416938483715 0.24817721545696259 7.25
			vertex 1.600000023841858 1.600000023841858 7.25
		endloop
	endfacet
	facet normal 0 0 1
		outer loop
			vertex -1.600000023841858 1.600000023841858 7.25
			vertex -0.08865122497081757 0.23375405371189117 7.25
			vertex -0.03013416938483715 0.24817721545696259 7.25
		endloop
	endfacet
	facet normal 0 0 1
		outer loop
			vertex -1.600000023841858 1.600000023841858 7.25
			vertex -0.1420161873102188 0.20574596524238586 7.25
			vertex -0.08865122497081757 0.23375405371189117 7.25
		endloop
	endfacet
	facet normal 0 0 1
		outer loop
			vertex -1.600000023841858 1.600000023841858 7.25
			vertex -0.18712769448757172 0.1657806634902954 7.25
			vertex -0.1420161873102188 0.20574596524238586 7.25
		endloop
	endfacet
	facet normal 0 0 1
		outer loop
			vertex -1.600000023841858 1.600000023841858 7.25
			vertex -0.22136400640010834 0.11618079245090485 7.25
			vertex -0.18712769448757172 0.1657806634902954 7.25
		endloop
	endfacet
	facet normal 0 0 1
		outer loop
			vertex -1.600000023841858 1.600000023841858 7.25
			vertex -0.24273546040058136 0.05982891470193863 7.25
			vertex -0.22136400640010834 0.11618079245090485 7.25
		endloop
	endfacet
	facet normal 0 0 1
		outer loop
			vertex -1.600000023841858 1.600000023841858 7.25
			vertex -0.25 0 7.25
			vertex -0.24273546040058136 0.05982891470193863 7.25
		endloop
	endfacet
	facet normal 0 0 1
		outer loop
			vertex -1.600000023841858 1.600000023841858 7.25
			vertex -1.600000023841858 -1.600000023841858 7.25
			vertex -0.25 0 7.25
		endloop
	endfacet
	facet normal 0 0 1
		outer loop
			vertex -1.600000023841858 1.600000023841858 7.25
			vertex -0.03013416938483715 0.24817721545696259 7.25
			vertex 1.600000023841858 1.600000023841858 7.25
		endloop
	endfacet
	facet normal 0 0 -1
		outer loop
			vertex 0.1420161873102188 -0.20574596524238586 -7.25
			vertex 0.18712769448757172 -0.1657806634902954 -7.25
			vertex 1.600000023841858 -1.600000023841858 -7.25
		endloop
	endfacet
	facet normal 0 0 -1
		outer loop
			vertex 0.22136400640010834 -0.11618079245090485 -7.25
			vertex 1.600000023841858 -1.600000023841858 -7.25
			vertex 0.18712769448757172 -0.1657806634902954 -7.25
		endloop
	endfacet
	facet normal 0 0 -1
		outer loop
			vertex 0.08865122497081757 -0.23375405371189117 -7.25
			vertex 0.1420161873102188 -0.20574596524238586 -7.25
			vertex 1.600000023841858 -1.600000023841858 -7.25
		endloop
	endfacet
	facet normal 0 0 -1
		outer loop
			vertex 0.24273546040058136 -0.05982891470193863 -7.25
			vertex 1.600000023841858 -1.600000023841858 -7.25
			vertex 0.22136400640010834 -0.11618079245090485 -7.25
		endloop
	endfacet
	facet normal 0 0 -1
		outer loop
			vertex 0.03013416938483715 -0.24817721545696259 -7.25
			vertex 0.08865122497081757 -0.23375405371189117 -7.25
			vertex 1.600000023841858 -1.600000023841858 -7.25
		endloop
	endfacet
	facet normal 0 0 -1
		outer loop
			vertex 0.25 3.0616171314629196e-17 -7.25
			vertex 1.600000023841858 -1.600000023841858 -7.25
			vertex 0.24273546040058136 -0.05982891470193863 -7.25
		endloop
	endfacet
	facet normal 0 0 -1
		outer loop
			vertex 1.600000023841858 1.600000023841858 -7.25
			vertex 0.25 3.0616171314629196e-17 -7.25
			vertex 0.24273546040058136 0.05982891470193863 -7.25
		endloop
	endfacet
	facet normal 0 0 -1
		outer loop
			vertex 1.600000023841858 1.600000023841858 -7.25
			vertex 0.24273546040058136 0.05982891470193863 -7.25
			vertex 0.22136400640010834 0.11618079245090485 -7.25
		endloop
	endfacet
	facet normal 0 0 -1
		outer loop
			vertex 1.600000023841858 1.600000023841858 -7.25
			vertex 0.22136400640010834 0.11618079245090485 -7.25
			vertex 0.18712769448757172 0.1657806634902954 -7.25
		endloop
	endfacet
	facet normal 0 0 -1
		outer loop
			vertex 1.600000023841858 1.600000023841858 -7.25
			vertex 1.600000023841858 -1.600000023841858 -7.25
			vertex 0.25 3.0616171314629196e-17 -7.25
		endloop
	endfacet
	facet normal 0 0 -1
		outer loop
			vertex -1.600000023841858 -1.600000023841858 -7.25
			vertex -0.1420161873102188 -0.20574596524238586 -7.25
			vertex -0.08865122497081757 -0.23375405371189117 -7.25
		endloop
	endfacet
	facet normal 0 0 -1
		outer loop
			vertex -1.600000023841858 -1.600000023841858 -7.25
			vertex -0.08865122497081757 -0.23375405371189117 -7.25
			vertex -0.03013416938483715 -0.24817721545696259 -7.25
		endloop
	endfacet
	facet normal 0 0 -1
		outer loop
			vertex -1.600000023841858 -1.600000023841858 -7.25
			vertex -0.03013416938483715 -0.24817721545696259 -7.25
			vertex 0.03013416938483715 -0.24817721545696259 -7.25
		endloop
	endfacet
	facet normal 0 0 -1
		outer loop
			vertex -1.600000023841858 -1.600000023841858 -7.25
			vertex 0.03013416938483715 -0.24817721545696259 -7.25
			vertex 1.600000023841858 -1.600000023841858 -7.25
		endloop
	endfacet
	facet normal 0 0 -1
		outer loop
			vertex -0.18712769448757172 -0.1657806634902954 -7.25
			vertex -0.1420161873102188 -0.20574596524238586 -7.25
			vertex -1.600000023841858 -1.600000023841858 -7.25
		endloop
	endfacet
	facet normal 0 0 -1
		outer loop
			vertex 0.1420161873102188 0.20574596524238586 -7.25
			vertex 1.600000023841858 1.600000023841858 -7.25
			vertex 0.18712769448757172 0.1657806634902954 -7.25
		endloop
	endfacet
	facet normal 0 0 -1
		outer loop
			vertex -0.22136400640010834 -0.11618079245090485 -7.25
			vertex -0.18712769448757172 -0.1657806634902954 -7.25
			vertex -1.600000023841858 -1.600000023841858 -7.25
		endloop
	endfacet
	facet normal 0 0 -1
		outer loop
			vertex 0.08865122497081757 0.23375405371189117 -7.25
			vertex 1.600000023841858 1.600000023841858 -7.25
			vertex 0.1420161873102188 0.20574596524238586 -7.25
		endloop
	endfacet
	facet normal 0 0 -1
		outer loop
			vertex -0.24273546040058136 -0.05982891470193863 -7.25
			vertex -0.22136400640010834 -0.11618079245090485 -7.25
			vertex -1.600000023841858 -1.600000023841858 -7.25
		endloop
	endfacet
	facet normal 0 0 -1
		outer loop
			vertex 0.03013416938483715 0.24817721545696259 -7.25
			vertex 1.600000023841858 1.600000023841858 -7.25
			vertex 0.08865122497081757 0.23375405371189117 -7.25
		endloop
	endfacet
	facet normal 0 0 -1
		outer loop
			vertex -0.25 0 -7.25
			vertex -0.24273546040058136 -0.05982891470193863 -7.25
			vertex -1.600000023841858 -1.600000023841858 -7.25
		endloop
	endfacet
	facet normal 0 0 -1
		outer loop
			vertex -0.03013416938483715 0.24817721545696259 -7.25
			vertex 1.600000023841858 1.600000023841858 -7.25
			vertex 0.03013416938483715 0.24817721545696259 -7.25
		endloop
	endfacet
	facet normal 0 0 -1
		outer loop
			vertex -1.600000023841858 1.600000023841858 -7.25
			vertex -0.03013416938483715 0.24817721545696259 -7.25
			vertex -0.08865122497081757 0.23375405371189117 -7.25
		endloop
	endfacet
	facet normal 0 0 -1
		outer loop
			vertex -1.600000023841858 1.600000023841858 -7.25
			vertex -0.08865122497081757 0.23375405371189117 -7.25
			vertex -0.1420161873102188 0.20574596524238586 -7.25
		endloop
	endfacet
	facet normal 0 0 -1
		outer loop
			vertex -1.600000023841858 1.600000023841858 -7.25
			vertex -0.1420161873102188 0.20574596524238586 -7.25
			vertex -0.18712769448757172 0.1657806634902954 -7.25
		endloop
	endfacet
	facet normal 0 0 -1
		outer loop
			vertex -1.600000023841858 1.600000023841858 -7.25
			vertex -0.18712769448757172 0.1657806634902954 -7.25
			vertex -0.22136400640010834 0.11618079245090485 -7.25
		endloop
	endfacet
	facet normal 0 0 -1
		outer loop
			vertex -1.600000023841858 1.600000023841858 -7.25
			vertex -0.22136400640010834 0.11618079245090485 -7.25
			vertex -0.24273546040058136 0.05982891470193863 -7.25
		endloop
	endfacet
	facet normal 0 0 -1
		outer loop
			vertex -1.600000023841858 1.600000023841858 -7.25
			vertex -0.24273546040058136 0.05982891470193863 -7.25
			vertex -0.25 0 -7.25
		endloop
	endfacet
	facet normal 0 0 -1
		outer loop
			vertex -1.600000023841858 1.600000023841858 -7.25
			vertex -0.25 0 -7.25
			vertex -1.600000023841858 -1.600000023841858 -7.25
		endloop
	endfacet
	facet normal 0 0 -1
		outer loop
			vertex -1.600000023841858 1.600000023841858 -7.25
			vertex 1.600000023841858 1.600000023841858 -7.25
			vertex -0.03013416938483715 0.24817721545696259 -7.25
		endloop
	endfacet
	facet normal 1 0 0
		outer loop
			vertex 1.600000023841858 1.600000023841858 7.25
			vertex 1.600000023841858 -1.600000023841858 7.25
			vertex 1.600000023841858 -1.600000023841858 -7.25
		endloop
	endfacet
	facet normal 1 0 0
		outer loop
			vertex 1.600000023841858 1.600000023841858 7.25
			vertex 1.600000023841858 -1.600000023841858 -7.25
			vertex 1.600000023841858 1.600000023841858 -7.25
		endloop
	endfacet
	facet normal 0 1 0
		outer loop
			vertex 1.600000023841858 1.600000023841858 -7.25
			vertex -1.600000023841858 1.600000023841858 7.25
			vertex 1.600000023841858 1.600000023841858 7.25
		endloop
	endfacet
	facet normal 0 1 0
		outer loop
			vertex 1.600000023841858 1.600000023841858 -7.25
			vertex -1.600000023841858 1.600000023841858 -7.25
			vertex -1.600000023841858 1.600000023841858 7.25
		endloop
	endfacet
	facet normal -1 0 0
		outer loop
			vertex -1.600000023841858 1.600000023841858 -7.25
			vertex -1.600000023841858 -1.600000023841858 7.25
			vertex -1.600000023841858 1.600000023841858 7.25
		endloop
	endfacet
	facet normal -1 0 0
		outer loop
			vertex -1.600000023841858 1.600000023841858 -7.25
			vertex -1.600000023841858 -1.600000023841858 -7.25
			vertex -1.600000023841858 -1.600000023841858 7.25
		endloop
	endfacet
	facet normal 0 -1 0
		outer loop
			vertex 1.600000023841858 -1.600000023841858 7.25
			vertex -1.600000023841858 -1.600000023841858 7.25
			vertex -1.600000023841858 -1.600000023841858 -7.25
		endloop
	endfacet
	facet normal 0 -1 0
		outer loop
			vertex 1.600000023841858 -1.600000023841858 7.25
			vertex -1.600000023841858 -1.600000023841858 -7.25
			vertex 1.600000023841858 -1.600000023841858 -7.25
		endloop
	endfacet
	facet normal 0 0 -1
		outer loop
			vertex 0.18712769448757172 0.1657806634902954 -21.75
			vertex 0.24273546040058136 0.05982891470193863 -21.75
			vertex 0.25 3.0616171314629196e-17 -21.75
		endloop
	endfacet
	facet normal 0 0 -1
		outer loop
			vertex 0.18712769448757172 0.1657806634902954 -21.75
			vertex 0.22136400640010834 0.11618079245090485 -21.75
			vertex 0.24273546040058136 0.05982891470193863 -21.75
		endloop
	endfacet
	facet normal 0 0 -1
		outer loop
			vertex 0.18712769448757172 0.1657806634902954 -21.75
			vertex 0.08865122497081757 0.23375405371189117 -21.75
			vertex 0.1420161873102188 0.20574596524238586 -21.75
		endloop
	endfacet
	facet normal 0 0 -1
		outer loop
			vertex 0.18712769448757172 0.1657806634902954 -21.75
			vertex 0.03013416938483715 0.24817721545696259 -21.75
			vertex 0.08865122497081757 0.23375405371189117 -21.75
		endloop
	endfacet
	facet normal 0 0 -1
		outer loop
			vertex 0.18712769448757172 0.1657806634902954 -21.75
			vertex -0.03013416938483715 0.24817721545696259 -21.75
			vertex 0.03013416938483715 0.24817721545696259 -21.75
		endloop
	endfacet
	facet normal 0 0 -1
		outer loop
			vertex 0.18712769448757172 0.1657806634902954 -21.75
			vertex -0.08865122497081757 0.23375405371189117 -21.75
			vertex -0.03013416938483715 0.24817721545696259 -21.75
		endloop
	endfacet
	facet normal 0 0 -1
		outer loop
			vertex 0.18712769448757172 0.1657806634902954 -21.75
			vertex -0.1420161873102188 0.20574596524238586 -21.75
			vertex -0.08865122497081757 0.23375405371189117 -21.75
		endloop
	endfacet
	facet normal 0 0 -1
		outer loop
			vertex 0.18712769448757172 0.1657806634902954 -21.75
			vertex -0.18712769448757172 0.1657806634902954 -21.75
			vertex -0.1420161873102188 0.20574596524238586 -21.75
		endloop
	endfacet
	facet normal 0 0 -1
		outer loop
			vertex 0.18712769448757172 0.1657806634902954 -21.75
			vertex -0.22136400640010834 0.11618079245090485 -21.75
			vertex -0.18712769448757172 0.1657806634902954 -21.75
		endloop
	endfacet
	facet normal 0 0 -1
		outer loop
			vertex 0.18712769448757172 0.1657806634902954 -21.75
			vertex -0.24273546040058136 0.05982891470193863 -21.75
			vertex -0.22136400640010834 0.11618079245090485 -21.75
		endloop
	endfacet
	facet normal 0 0 -1
		outer loop
			vertex 0.18712769448757172 0.1657806634902954 -21.75
			vertex -0.25 0 -21.75
			vertex -0.24273546040058136 0.05982891470193863 -21.75
		endloop
	endfacet
	facet normal 0 0 -1
		outer loop
			vertex 0.18712769448757172 0.1657806634902954 -21.75
			vertex -0.24273546040058136 -0.05982891470193863 -21.75
			vertex -0.25 0 -21.75
		endloop
	endfacet
	facet normal 0 0 -1
		outer loop
			vertex 0.18712769448757172 0.1657806634902954 -21.75
			vertex -0.22136400640010834 -0.11618079245090485 -21.75
			vertex -0.24273546040058136 -0.05982891470193863 -21.75
		endloop
	endfacet
	facet normal 0 0 -1
		outer loop
			vertex 0.18712769448757172 0.1657806634902954 -21.75
			vertex -0.18712769448757172 -0.1657806634902954 -21.75
			vertex -0.22136400640010834 -0.11618079245090485 -21.75
		endloop
	endfacet
	facet normal 0 0 -1
		outer loop
			vertex 0.18712769448757172 0.1657806634902954 -21.75
			vertex -0.1420161873102188 -0.20574596524238586 -21.75
			vertex -0.18712769448757172 -0.1657806634902954 -21.75
		endloop
	endfacet
	facet normal 0 0 -1
		outer loop
			vertex 0.18712769448757172 0.1657806634902954 -21.75
			vertex -0.08865122497081757 -0.23375405371189117 -21.75
			vertex -0.1420161873102188 -0.20574596524238586 -21.75
		endloop
	endfacet
	facet normal 0 0 -1
		outer loop
			vertex 0.18712769448757172 0.1657806634902954 -21.75
			vertex -0.03013416938483715 -0.24817721545696259 -21.75
			vertex -0.08865122497081757 -0.23375405371189117 -21.75
		endloop
	endfacet
	facet normal 0 0 -1
		outer loop
			vertex 0.18712769448757172 0.1657806634902954 -21.75
			vertex 0.03013416938483715 -0.24817721545696259 -21.75
			vertex -0.03013416938483715 -0.24817721545696259 -21.75
		endloop
	endfacet
	facet normal 0 0 -1
		outer loop
			vertex 0.18712769448757172 0.1657806634902954 -21.75
			vertex 0.08865122497081757 -0.23375405371189117 -21.75
			vertex 0.03013416938483715 -0.24817721545696259 -21.75
		endloop
	endfacet
	facet normal 0 0 -1
		outer loop
			vertex 0.18712769448757172 0.1657806634902954 -21.75
			vertex 0.1420161873102188 -0.20574596524238586 -21.75
			vertex 0.08865122497081757 -0.23375405371189117 -21.75
		endloop
	endfacet
	facet normal 0 0 -1
		outer loop
			vertex 0.18712769448757172 0.1657806634902954 -21.75
			vertex 0.18712769448757172 -0.1657806634902954 -21.75
			vertex 0.1420161873102188 -0.20574596524238586 -21.75
		endloop
	endfacet
	facet normal 0 0 -1
		outer loop
			vertex 0.18712769448757172 0.1657806634902954 -21.75
			vertex 0.22136400640010834 -0.11618079245090485 -21.75
			vertex 0.18712769448757172 -0.1657806634902954 -21.75
		endloop
	endfacet
	facet normal 0 0 -1
		outer loop
			vertex 0.18712769448757172 0.1657806634902954 -21.75
			vertex 0.24273546040058136 -0.05982891470193863 -21.75
			vertex 0.22136400640010834 -0.11618079245090485 -21.75
		endloop
	endfacet
	facet normal 0 0 -1
		outer loop
			vertex 0.18712769448757172 0.1657806634902954 -21.75
			vertex 0.25 3.0616171314629196e-17 -21.75
			vertex 0.24273546040058136 -0.05982891470193863 -21.75
		endloop
	endfacet
	facet normal 0.9927088857677917 -0.12053658414634753 0
		outer loop
			vertex 0.25 3.0616171314629196e-17 -21.75
			vertex 0.25 3.0616171314629196e-17 -7.25
			vertex 0.24273546040058136 -0.05982891470193863 -7.25
		endloop
	endfacet
	facet normal 0.9350162110516939 -0.35460497045379175 0
		outer loop
			vertex 0.24273546040058136 -0.05982891470193863 -21.75
			vertex 0.24273546040058136 -0.05982891470193863 -7.25
			vertex 0.22136400640010834 -0.11618079245090485 -7.25
		endloop
	endfacet
	facet normal 0.9927088857677917 -0.12053658414634753 0
		outer loop
			vertex 0.24273546040058136 -0.05982891470193863 -21.75
			vertex 0.25 3.0616171314629196e-17 -21.75
			vertex 0.24273546040058136 -0.05982891470193863 -7.25
		endloop
	endfacet
	facet normal 0.8229839210161078 -0.56806466687249 0
		outer loop
			vertex 0.22136400640010834 -0.11618079245090485 -21.75
			vertex 0.22136400640010834 -0.11618079245090485 -7.25
			vertex 0.18712769448757172 -0.1657806634902954 -7.25
		endloop
	endfacet
	facet normal 0.9350162110516939 -0.35460497045379175 0
		outer loop
			vertex 0.22136400640010834 -0.11618079245090485 -21.75
			vertex 0.24273546040058136 -0.05982891470193863 -21.75
			vertex 0.22136400640010834 -0.11618079245090485 -7.25
		endloop
	endfacet
	facet normal 0.6631226005968793 -0.7485107992391505 0
		outer loop
			vertex 0.18712769448757172 -0.1657806634902954 -21.75
			vertex 0.18712769448757172 -0.1657806634902954 -7.25
			vertex 0.1420161873102188 -0.20574596524238586 -7.25
		endloop
	endfacet
	facet normal 0.8229839210161078 -0.56806466687249 0
		outer loop
			vertex 0.18712769448757172 -0.1657806634902954 -21.75
			vertex 0.22136400640010834 -0.11618079245090485 -21.75
			vertex 0.18712769448757172 -0.1657806634902954 -7.25
		endloop
	endfacet
	facet normal 0.46472311515658843 -0.8854560555099031 0
		outer loop
			vertex 0.1420161873102188 -0.20574596524238586 -21.75
			vertex 0.1420161873102188 -0.20574596524238586 -7.25
			vertex 0.08865122497081757 -0.23375405371189117 -7.25
		endloop
	endfacet
	facet normal 0.6631226005968793 -0.7485107992391505 0
		outer loop
			vertex 0.1420161873102188 -0.20574596524238586 -21.75
			vertex 0.18712769448757172 -0.1657806634902954 -21.75
			vertex 0.1420161873102188 -0.20574596524238586 -7.25
		endloop
	endfacet
	facet normal 0.2393157101709929 -0.9709418061167998 0
		outer loop
			vertex 0.08865122497081757 -0.23375405371189117 -21.75
			vertex 0.08865122497081757 -0.23375405371189117 -7.25
			vertex 0.03013416938483715 -0.24817721545696259 -7.25
		endloop
	endfacet
	facet normal 0.46472311515658843 -0.8854560555099031 0
		outer loop
			vertex 0.08865122497081757 -0.23375405371189117 -21.75
			vertex 0.1420161873102188 -0.20574596524238586 -21.75
			vertex 0.08865122497081757 -0.23375405371189117 -7.25
		endloop
	endfacet
	facet normal 0 -1 0
		outer loop
			vertex 0.03013416938483715 -0.24817721545696259 -21.75
			vertex 0.03013416938483715 -0.24817721545696259 -7.25
			vertex -0.03013416938483715 -0.24817721545696259 -7.25
		endloop
	endfacet
	facet normal 0.2393157101709929 -0.9709418061167998 0
		outer loop
			vertex 0.03013416938483715 -0.24817721545696259 -21.75
			vertex 0.08865122497081757 -0.23375405371189117 -21.75
			vertex 0.03013416938483715 -0.24817721545696259 -7.25
		endloop
	endfacet
	facet normal -0.2393157101709929 -0.9709418061167998 0
		outer loop
			vertex -0.03013416938483715 -0.24817721545696259 -21.75
			vertex -0.03013416938483715 -0.24817721545696259 -7.25
			vertex -0.08865122497081757 -0.23375405371189117 -7.25
		endloop
	endfacet
	facet normal 0 -1 0
		outer loop
			vertex -0.03013416938483715 -0.24817721545696259 -21.75
			vertex 0.03013416938483715 -0.24817721545696259 -21.75
			vertex -0.03013416938483715 -0.24817721545696259 -7.25
		endloop
	endfacet
	facet normal -0.2393157101709929 -0.9709418061167998 0
		outer loop
			vertex -0.08865122497081757 -0.23375405371189117 -21.75
			vertex -0.03013416938483715 -0.24817721545696259 -21.75
			vertex -0.08865122497081757 -0.23375405371189117 -7.25
		endloop
	endfacet
	facet normal -0.6631226005968793 -0.7485107992391505 0
		outer loop
			vertex -0.1420161873102188 -0.20574596524238586 -21.75
			vertex -0.1420161873102188 -0.20574596524238586 -7.25
			vertex -0.18712769448757172 -0.1657806634902954 -7.25
		endloop
	endfacet
	facet normal -0.46472311515658843 -0.8854560555099031 0
		outer loop
			vertex -0.1420161873102188 -0.20574596524238586 -21.75
			vertex -0.08865122497081757 -0.23375405371189117 -7.25
			vertex -0.1420161873102188 -0.20574596524238586 -7.25
		endloop
	endfacet
	facet normal -0.46472311515658843 -0.8854560555099031 0
		outer loop
			vertex -0.1420161873102188 -0.20574596524238586 -21.75
			vertex -0.08865122497081757 -0.23375405371189117 -21.75
			vertex -0.08865122497081757 -0.23375405371189117 -7.25
		endloop
	endfacet
	facet normal -0.6631226005968793 -0.7485107992391505 0
		outer loop
			vertex -0.18712769448757172 -0.1657806634902954 -21.75
			vertex -0.1420161873102188 -0.20574596524238586 -21.75
			vertex -0.18712769448757172 -0.1657806634902954 -7.25
		endloop
	endfacet
	facet normal -0.8229839210161078 -0.56806466687249 0
		outer loop
			vertex -0.22136400640010834 -0.11618079245090485 -21.75
			vertex -0.18712769448757172 -0.1657806634902954 -7.25
			vertex -0.22136400640010834 -0.11618079245090485 -7.25
		endloop
	endfacet
	facet normal -0.8229839210161078 -0.56806466687249 0
		outer loop
			vertex -0.22136400640010834 -0.11618079245090485 -21.75
			vertex -0.18712769448757172 -0.1657806634902954 -21.75
			vertex -0.18712769448757172 -0.1657806634902954 -7.25
		endloop
	endfacet
	facet normal -0.9927088857677918 -0.1205365841463476 0
		outer loop
			vertex -0.24273546040058136 -0.05982891470193863 -21.75
			vertex -0.24273546040058136 -0.05982891470193863 -7.25
			vertex -0.25 0 -7.25
		endloop
	endfacet
	facet normal -0.9350162110516939 -0.35460497045379175 0
		outer loop
			vertex -0.24273546040058136 -0.05982891470193863 -21.75
			vertex -0.22136400640010834 -0.11618079245090485 -7.25
			vertex -0.24273546040058136 -0.05982891470193863 -7.25
		endloop
	endfacet
	facet normal -0.9350162110516939 -0.35460497045379175 0
		outer loop
			vertex -0.24273546040058136 -0.05982891470193863 -21.75
			vertex -0.22136400640010834 -0.11618079245090485 -21.75
			vertex -0.22136400640010834 -0.11618079245090485 -7.25
		endloop
	endfacet
	facet normal -0.9927088857677918 -0.1205365841463476 0
		outer loop
			vertex -0.25 0 -21.75
			vertex -0.24273546040058136 -0.05982891470193863 -21.75
			vertex -0.25 0 -7.25
		endloop
	endfacet
	facet normal 0.9927088857677917 -0.12053658414634753 0
		outer loop
			vertex 0.24273546040058136 -0.05982891470193863 7.25
			vertex 0.25 3.0616171314629196e-17 7.25
			vertex 0.25 3.0616171314629196e-17 21.75
		endloop
	endfacet
	facet normal 0.9927088857677917 -0.12053658414634753 0
		outer loop
			vertex 0.24273546040058136 -0.05982891470193863 7.25
			vertex 0.25 3.0616171314629196e-17 21.75
			vertex 0.24273546040058136 -0.05982891470193863 21.75
		endloop
	endfacet
	facet normal 0.9350162110516939 -0.35460497045379175 0
		outer loop
			vertex 0.22136400640010834 -0.11618079245090485 7.25
			vertex 0.24273546040058136 -0.05982891470193863 21.75
			vertex 0.22136400640010834 -0.11618079245090485 21.75
		endloop
	endfacet
	facet normal 0.9350162110516939 -0.35460497045379175 0
		outer loop
			vertex 0.22136400640010834 -0.11618079245090485 7.25
			vertex 0.24273546040058136 -0.05982891470193863 7.25
			vertex 0.24273546040058136 -0.05982891470193863 21.75
		endloop
	endfacet
	facet normal 0.8229839210161078 -0.56806466687249 0
		outer loop
			vertex 0.18712769448757172 -0.1657806634902954 7.25
			vertex 0.22136400640010834 -0.11618079245090485 21.75
			vertex 0.18712769448757172 -0.1657806634902954 21.75
		endloop
	endfacet
	facet normal 0.8229839210161078 -0.56806466687249 0
		outer loop
			vertex 0.18712769448757172 -0.1657806634902954 7.25
			vertex 0.22136400640010834 -0.11618079245090485 7.25
			vertex 0.22136400640010834 -0.11618079245090485 21.75
		endloop
	endfacet
	facet normal 0.6631226005968793 -0.7485107992391505 0
		outer loop
			vertex 0.1420161873102188 -0.20574596524238586 7.25
			vertex 0.18712769448757172 -0.1657806634902954 21.75
			vertex 0.1420161873102188 -0.20574596524238586 21.75
		endloop
	endfacet
	facet normal 0.6631226005968793 -0.7485107992391505 0
		outer loop
			vertex 0.1420161873102188 -0.20574596524238586 7.25
			vertex 0.18712769448757172 -0.1657806634902954 7.25
			vertex 0.18712769448757172 -0.1657806634902954 21.75
		endloop
	endfacet
	facet normal 0.46472311515658843 -0.8854560555099031 0
		outer loop
			vertex 0.08865122497081757 -0.23375405371189117 7.25
			vertex 0.1420161873102188 -0.20574596524238586 21.75
			vertex 0.08865122497081757 -0.23375405371189117 21.75
		endloop
	endfacet
	facet normal 0.46472311515658843 -0.8854560555099031 0
		outer loop
			vertex 0.08865122497081757 -0.23375405371189117 7.25
			vertex 0.1420161873102188 -0.20574596524238586 7.25
			vertex 0.1420161873102188 -0.20574596524238586 21.75
		endloop
	endfacet
	facet normal 0.2393157101709929 -0.9709418061167998 0
		outer loop
			vertex 0.03013416938483715 -0.24817721545696259 7.25
			vertex 0.08865122497081757 -0.23375405371189117 21.75
			vertex 0.03013416938483715 -0.24817721545696259 21.75
		endloop
	endfacet
	facet normal 0.2393157101709929 -0.9709418061167998 0
		outer loop
			vertex 0.03013416938483715 -0.24817721545696259 7.25
			vertex 0.08865122497081757 -0.23375405371189117 7.25
			vertex 0.08865122497081757 -0.23375405371189117 21.75
		endloop
	endfacet
	facet normal 0 -1 0
		outer loop
			vertex -0.03013416938483715 -0.24817721545696259 7.25
			vertex 0.03013416938483715 -0.24817721545696259 21.75
			vertex -0.03013416938483715 -0.24817721545696259 21.75
		endloop
	endfacet
	facet normal 0 -1 0
		outer loop
			vertex -0.03013416938483715 -0.24817721545696259 7.25
			vertex 0.03013416938483715 -0.24817721545696259 7.25
			vertex 0.03013416938483715 -0.24817721545696259 21.75
		endloop
	endfacet
	facet normal -0.2393157101709929 -0.9709418061167998 0
		outer loop
			vertex -0.08865122497081757 -0.23375405371189117 7.25
			vertex -0.03013416938483715 -0.24817721545696259 21.75
			vertex -0.08865122497081757 -0.23375405371189117 21.75
		endloop
	endfacet
	facet normal -0.2393157101709929 -0.9709418061167998 0
		outer loop
			vertex -0.08865122497081757 -0.23375405371189117 7.25
			vertex -0.03013416938483715 -0.24817721545696259 7.25
			vertex -0.03013416938483715 -0.24817721545696259 21.75
		endloop
	endfacet
	facet normal -0.46472311515658843 -0.8854560555099031 0
		outer loop
			vertex -0.1420161873102188 -0.20574596524238586 7.25
			vertex -0.08865122497081757 -0.23375405371189117 21.75
			vertex -0.1420161873102188 -0.20574596524238586 21.75
		endloop
	endfacet
	facet normal -0.46472311515658843 -0.8854560555099031 0
		outer loop
			vertex -0.1420161873102188 -0.20574596524238586 7.25
			vertex -0.08865122497081757 -0.23375405371189117 7.25
			vertex -0.08865122497081757 -0.23375405371189117 21.75
		endloop
	endfacet
	facet normal -0.6631226005968793 -0.7485107992391505 0
		outer loop
			vertex -0.18712769448757172 -0.1657806634902954 7.25
			vertex -0.1420161873102188 -0.20574596524238586 21.75
			vertex -0.18712769448757172 -0.1657806634902954 21.75
		endloop
	endfacet
	facet normal -0.6631226005968793 -0.7485107992391505 0
		outer loop
			vertex -0.18712769448757172 -0.1657806634902954 7.25
			vertex -0.1420161873102188 -0.20574596524238586 7.25
			vertex -0.1420161873102188 -0.20574596524238586 21.75
		endloop
	endfacet
	facet normal -0.9350162110516939 -0.35460497045379175 0
		outer loop
			vertex -0.22136400640010834 -0.11618079245090485 7.25
			vertex -0.22136400640010834 -0.11618079245090485 21.75
			vertex -0.24273546040058136 -0.05982891470193863 21.75
		endloop
	endfacet
	facet normal -0.8229839210161078 -0.56806466687249 0
		outer loop
			vertex -0.22136400640010834 -0.11618079245090485 7.25
			vertex -0.18712769448757172 -0.1657806634902954 21.75
			vertex -0.22136400640010834 -0.11618079245090485 21.75
		endloop
	endfacet
	facet normal -0.8229839210161078 -0.56806466687249 0
		outer loop
			vertex -0.22136400640010834 -0.11618079245090485 7.25
			vertex -0.18712769448757172 -0.1657806634902954 7.25
			vertex -0.18712769448757172 -0.1657806634902954 21.75
		endloop
	endfacet
	facet normal -0.9350162110516939 -0.35460497045379175 0
		outer loop
			vertex -0.24273546040058136 -0.05982891470193863 7.25
			vertex -0.22136400640010834 -0.11618079245090485 7.25
			vertex -0.24273546040058136 -0.05982891470193863 21.75
		endloop
	endfacet
	facet normal -0.9927088857677918 -0.1205365841463476 0
		outer loop
			vertex -0.25 0 7.25
			vertex -0.24273546040058136 -0.05982891470193863 21.75
			vertex -0.25 0 21.75
		endloop
	endfacet
	facet normal -0.9927088857677918 -0.1205365841463476 0
		outer loop
			vertex -0.25 0 7.25
			vertex -0.24273546040058136 -0.05982891470193863 7.25
			vertex -0.24273546040058136 -0.05982891470193863 21.75
		endloop
	endfacet
	facet normal 0 0 1
		outer loop
			vertex 0.18712769448757172 0.1657806634902954 21.75
			vertex -0.25 0 21.75
			vertex -0.24273546040058136 -0.05982891470193863 21.75
		endloop
	endfacet
	facet normal 0 0 1
		outer loop
			vertex 0.18712769448757172 0.1657806634902954 21.75
			vertex -0.24273546040058136 -0.05982891470193863 21.75
			vertex -0.22136400640010834 -0.11618079245090485 21.75
		endloop
	endfacet
	facet normal 0 0 1
		outer loop
			vertex 0.18712769448757172 0.1657806634902954 21.75
			vertex -0.22136400640010834 -0.11618079245090485 21.75
			vertex -0.18712769448757172 -0.1657806634902954 21.75
		endloop
	endfacet
	facet normal 0 0 1
		outer loop
			vertex 0.18712769448757172 0.1657806634902954 21.75
			vertex -0.18712769448757172 -0.1657806634902954 21.75
			vertex -0.1420161873102188 -0.20574596524238586 21.75
		endloop
	endfacet
	facet normal 0 0 1
		outer loop
			vertex 0.18712769448757172 0.1657806634902954 21.75
			vertex -0.1420161873102188 -0.20574596524238586 21.75
			vertex -0.08865122497081757 -0.23375405371189117 21.75
		endloop
	endfacet
	facet normal 0 0 1
		outer loop
			vertex 0.18712769448757172 0.1657806634902954 21.75
			vertex -0.08865122497081757 -0.23375405371189117 21.75
			vertex -0.03013416938483715 -0.24817721545696259 21.75
		endloop
	endfacet
	facet normal 0 0 1
		outer loop
			vertex 0.18712769448757172 0.1657806634902954 21.75
			vertex -0.03013416938483715 -0.24817721545696259 21.75
			vertex 0.03013416938483715 -0.24817721545696259 21.75
		endloop
	endfacet
	facet normal 0 0 1
		outer loop
			vertex 0.18712769448757172 0.1657806634902954 21.75
			vertex 0.03013416938483715 -0.24817721545696259 21.75
			vertex 0.08865122497081757 -0.23375405371189117 21.75
		endloop
	endfacet
	facet normal 0 0 1
		outer loop
			vertex 0.18712769448757172 0.1657806634902954 21.75
			vertex 0.08865122497081757 -0.23375405371189117 21.75
			vertex 0.1420161873102188 -0.20574596524238586 21.75
		endloop
	endfacet
	facet normal 0 0 1
		outer loop
			vertex 0.18712769448757172 0.1657806634902954 21.75
			vertex 0.1420161873102188 -0.20574596524238586 21.75
			vertex 0.18712769448757172 -0.1657806634902954 21.75
		endloop
	endfacet
	facet normal 0 0 1
		outer loop
			vertex 0.18712769448757172 0.1657806634902954 21.75
			vertex 0.18712769448757172 -0.1657806634902954 21.75
			vertex 0.22136400640010834 -0.11618079245090485 21.75
		endloop
	endfacet
	facet normal 0 0 1
		outer loop
			vertex 0.18712769448757172 0.1657806634902954 21.75
			vertex 0.22136400640010834 -0.11618079245090485 21.75
			vertex 0.24273546040058136 -0.05982891470193863 21.75
		endloop
	endfacet
	facet normal 0 0 1
		outer loop
			vertex 0.18712769448757172 0.1657806634902954 21.75
			vertex 0.24273546040058136 -0.05982891470193863 21.75
			vertex 0.25 3.0616171314629196e-17 21.75
		endloop
	endfacet
	facet normal 0 0 1
		outer loop
			vertex 0.18712769448757172 0.1657806634902954 21.75
			vertex 0.25 3.0616171314629196e-17 21.75
			vertex 0.24273546040058136 0.05982891470193863 21.75
		endloop
	endfacet
	facet normal 0 0 1
		outer loop
			vertex 0.18712769448757172 0.1657806634902954 21.75
			vertex 0.24273546040058136 0.05982891470193863 21.75
			vertex 0.22136400640010834 0.11618079245090485 21.75
		endloop
	endfacet
	facet normal 0 0 1
		outer loop
			vertex 0.18712769448757172 0.1657806634902954 21.75
			vertex 0.1420161873102188 0.20574596524238586 21.75
			vertex 0.08865122497081757 0.23375405371189117 21.75
		endloop
	endfacet
	facet normal 0 0 1
		outer loop
			vertex 0.18712769448757172 0.1657806634902954 21.75
			vertex 0.08865122497081757 0.23375405371189117 21.75
			vertex 0.03013416938483715 0.24817721545696259 21.75
		endloop
	endfacet
	facet normal 0 0 1
		outer loop
			vertex 0.18712769448757172 0.1657806634902954 21.75
			vertex 0.03013416938483715 0.24817721545696259 21.75
			vertex -0.03013416938483715 0.24817721545696259 21.75
		endloop
	endfacet
	facet normal 0 0 1
		outer loop
			vertex 0.18712769448757172 0.1657806634902954 21.75
			vertex -0.03013416938483715 0.24817721545696259 21.75
			vertex -0.08865122497081757 0.23375405371189117 21.75
		endloop
	endfacet
	facet normal 0 0 1
		outer loop
			vertex 0.18712769448757172 0.1657806634902954 21.75
			vertex -0.08865122497081757 0.23375405371189117 21.75
			vertex -0.1420161873102188 0.20574596524238586 21.75
		endloop
	endfacet
	facet normal 0 0 1
		outer loop
			vertex 0.18712769448757172 0.1657806634902954 21.75
			vertex -0.1420161873102188 0.20574596524238586 21.75
			vertex -0.18712769448757172 0.1657806634902954 21.75
		endloop
	endfacet
	facet normal 0 0 1
		outer loop
			vertex 0.18712769448757172 0.1657806634902954 21.75
			vertex -0.18712769448757172 0.1657806634902954 21.75
			vertex -0.22136400640010834 0.11618079245090485 21.75
		endloop
	endfacet
	facet normal 0 0 1
		outer loop
			vertex 0.18712769448757172 0.1657806634902954 21.75
			vertex -0.22136400640010834 0.11618079245090485 21.75
			vertex -0.24273546040058136 0.05982891470193863 21.75
		endloop
	endfacet
	facet normal 0 0 1
		outer loop
			vertex 0.18712769448757172 0.1657806634902954 21.75
			vertex -0.24273546040058136 0.05982891470193863 21.75
			vertex -0.25 0 21.75
		endloop
	endfacet
endsolid exported
